<svg width="80" height="34" viewBox="0 0 80 34" fill="none" xmlns="http://www.w3.org/2000/svg">
<g clip-path="url(#clip0_3266_954)">
<path d="M20.5344 22.3071H21.6106V31.7904H20.5344V22.3071Z" fill="#1E1E1E"/>
<path d="M23.1175 24.9637H24.1281V26.3184C24.64 25.4109 25.5062 24.8585 26.5169 24.8585C27.9212 24.8585 28.9319 25.8055 28.9319 27.2522V31.7896H27.9212V27.41C27.9212 26.4631 27.3175 25.7792 26.32 25.7792C25.0075 25.7792 24.1281 26.9365 24.1281 28.791V31.7896H23.1175V24.9637Z" fill="#1E1E1E"/>
<path d="M30.6394 25.845H29.3531V24.9638H30.6394V24.1615C30.6394 22.82 31.4532 22.1887 32.5557 22.1887C32.8444 22.1887 33.1331 22.215 33.4088 22.2808V23.1883C33.1988 23.1357 32.8969 23.0962 32.6081 23.0962C32.0831 23.0962 31.6369 23.4382 31.6369 24.1878V24.9638H33.4088V25.845H31.6369V31.7897H30.6394V25.845Z" fill="#1E1E1E"/>
<path d="M33.9807 22.2019H34.9913V31.7897H33.9807V22.2019Z" fill="#1E1E1E"/>
<path d="M42.1263 31.7896H41.1156V30.435C40.6038 31.3425 39.7375 31.8949 38.7269 31.8949C37.3225 31.8949 36.3119 30.9479 36.3119 29.5012V24.9637H37.3225V29.3434C37.3225 30.2903 37.9263 30.9742 38.9238 30.9742C40.2363 30.9742 41.1156 29.8168 41.1156 27.9624V24.9637H42.1263V31.7896Z" fill="#1E1E1E"/>
<path d="M46.3575 24.8585C48.2344 24.8585 49.4156 26.2395 49.4025 28.0413C49.4025 28.2517 49.3762 28.5016 49.3762 28.5016H44.1262C44.1787 30.0667 45.0712 31.0005 46.3837 31.0005C47.3812 31.0005 48.2212 30.5139 48.3787 29.6327H49.35C49.1006 31.1189 47.88 31.8949 46.3837 31.8949C44.3756 31.8949 43.1025 30.3561 43.1025 28.3701C43.1025 26.3842 44.3494 24.8585 46.3575 24.8585ZM48.3269 27.6467C48.2481 26.542 47.5525 25.7266 46.3581 25.7266C45.1637 25.7266 44.4025 26.4762 44.1925 27.6467H48.3269Z" fill="#1E1E1E"/>
<path d="M50.4094 24.9637H51.42V26.3184C51.9319 25.4109 52.7981 24.8585 53.8087 24.8585C55.2131 24.8585 56.2237 25.8055 56.2237 27.2522V31.7896H55.2131V27.41C55.2131 26.4631 54.6094 25.7792 53.6119 25.7792C52.2994 25.7792 51.42 26.9365 51.42 28.791V31.7896H50.4094V24.9637Z" fill="#1E1E1E"/>
<path d="M57.14 28.3701C57.14 26.2658 58.4656 24.8585 60.4344 24.8585C61.9306 24.8585 63.0725 25.7134 63.3219 27.3179H62.3375C62.18 26.3842 61.4319 25.766 60.4475 25.766C59.0694 25.766 58.19 26.805 58.19 28.3701C58.19 29.9352 59.0825 30.9874 60.4475 30.9874C61.4319 30.9874 62.1669 30.435 62.3506 29.3697H63.3481C63.0463 31.0926 61.9175 31.8949 60.4344 31.8949C58.4656 31.8949 57.14 30.4876 57.14 28.3701Z" fill="#1E1E1E"/>
<path d="M67.1 24.8585C68.9768 24.8585 70.1581 26.2395 70.145 28.0413C70.145 28.2517 70.1187 28.5016 70.1187 28.5016H64.8687C64.9212 30.0667 65.8137 31.0005 67.1262 31.0005C68.1237 31.0005 68.9637 30.5139 69.1212 29.6327H70.0925C69.8431 31.1189 68.6225 31.8949 67.1262 31.8949C65.1181 31.8949 63.845 30.3561 63.845 28.3701C63.845 26.3842 65.0918 24.8585 67.1 24.8585ZM69.0693 27.6467C68.9906 26.542 68.295 25.7266 67.1006 25.7266C65.9062 25.7266 65.145 26.4762 64.935 27.6467H69.0693Z" fill="#1E1E1E"/>
<path d="M5.69375 9.59158L8.54062 6.73885L5.69375 3.88611L2.84687 6.73885L0 9.59158L5.69375 15.2971L8.54062 12.4443L5.69375 9.59158Z" fill="#00CAFF"/>
<path d="M11.3875 3.88611L8.54065 6.73885L11.3875 9.59158L8.54065 12.4443L11.3875 15.2971L17.0813 9.59158L11.3875 3.88611Z" fill="#00CAFF"/>
<path d="M24.5456 0H20.5193V18.7661H32.5975V14.7365H24.5456V0Z" fill="#1E1E1E"/>
<path d="M45.9487 15.4348C45.8275 15.2438 45.7669 14.9751 45.7669 14.6281V10.5936C45.7669 9.44811 45.5244 8.4592 45.0394 7.62624C44.5544 6.79328 43.8619 6.15572 42.9612 5.71294C42.0606 5.27015 40.9869 5.04907 39.7406 5.04907C38.5975 5.04907 37.5975 5.24447 36.7406 5.63465C35.8837 6.02483 35.195 6.58034 34.6756 7.30057C34.1562 8.0208 33.8444 8.87506 33.7406 9.86459H37.4031C37.4375 9.27463 37.6756 8.80617 38.1175 8.4592C38.5587 8.11224 39.1 7.93876 39.7406 7.93876C40.3812 7.93876 40.9312 8.08656 41.3381 8.38092C41.745 8.6759 41.9487 9.03163 41.9487 9.44811C41.9487 9.72618 41.8662 9.94726 41.7019 10.112C41.5375 10.2767 41.2994 10.385 40.9875 10.437L38.4937 10.7752C36.9525 10.9831 35.775 11.4478 34.9612 12.1674C34.1469 12.8877 33.7406 13.8465 33.7406 15.0434C33.7406 15.7724 33.9437 16.4406 34.3512 17.0475C34.7581 17.655 35.3206 18.1278 36.0394 18.466C36.7575 18.8042 37.5756 18.9733 38.4937 18.9733C39.4806 18.9733 40.3337 18.8174 41.0525 18.5048C41.7706 18.1923 42.2687 17.7589 42.5462 17.2034C42.65 17.7589 42.94 18.1886 43.4162 18.4917C43.8925 18.7948 44.4769 18.947 45.1694 18.947C45.7581 18.947 46.3725 18.8863 47.0137 18.7648V15.6671C46.8581 15.6847 46.7019 15.7022 46.5462 15.7191C46.2687 15.7191 46.07 15.6239 45.9487 15.4329V15.4348ZM42.0781 13.0662C42.0781 13.9342 41.8137 14.667 41.2856 15.2657C40.7575 15.8644 40.0519 16.1638 39.1687 16.1638C38.6494 16.1638 38.2375 16.0379 37.935 15.7861C37.6319 15.535 37.4806 15.2181 37.4806 14.8361C37.4806 14.4196 37.6237 14.0726 37.9094 13.7952C38.195 13.5177 38.6062 13.3442 39.1431 13.2747L42.0781 12.78V13.0662Z" fill="#1E1E1E"/>
<path d="M53.0137 1.32776H49.1956V5.25771H47.0137V8.40731H49.1956V14.2374C49.1956 15.7818 49.6631 16.9574 50.5981 17.764C51.5331 18.5707 52.7625 18.974 54.2862 18.974C54.9444 18.974 55.5244 18.9133 56.0262 18.7918V15.5382C55.5756 15.6597 55.1775 15.7205 54.8312 15.7205C54.2944 15.7205 53.8575 15.547 53.5194 15.2C53.1819 14.853 53.0131 14.3846 53.0131 13.7946V8.40668H56.0262V5.25708H53.0131V1.32776H53.0137Z" fill="#1E1E1E"/>
<path d="M67.0906 6.03871C66.0687 5.37923 64.8131 5.0498 63.3244 5.0498C61.8356 5.0498 60.64 5.38424 59.6362 6.05186C58.6319 6.72011 57.8912 7.58313 57.4156 8.64156C56.9394 9.69998 56.7012 10.8192 56.7012 11.9991C56.7012 13.179 56.9612 14.2982 57.4806 15.3566C58 16.415 58.7794 17.2824 59.8181 17.9595C60.8569 18.6365 62.1125 18.9747 63.5844 18.9747C64.7444 18.9747 65.7831 18.788 66.7012 18.4148C67.6187 18.0415 68.3675 17.4998 68.9481 16.7883C69.5281 16.0768 69.8875 15.2357 70.0262 14.2637H66.2337C66.095 14.7497 65.7962 15.1274 65.3375 15.3961C64.8787 15.6654 64.3287 15.7994 63.6881 15.7994C62.6662 15.7994 61.8569 15.4656 61.2594 14.7973C60.8525 14.3426 60.5844 13.7571 60.455 13.0406H70.0256C70.06 12.5721 70.0775 12.1387 70.0775 11.7392C70.0944 10.6288 69.8569 9.56596 69.3631 8.55075C68.8694 7.53554 68.1119 6.69882 67.0906 6.03934V6.03871ZM60.5394 10.2812C60.5881 10.0789 60.645 9.88724 60.7137 9.70875C60.9475 9.10125 61.285 8.64156 61.7269 8.32904C62.1681 8.01653 62.7012 7.86058 63.3244 7.86058C63.8606 7.86058 64.32 7.96454 64.7012 8.1731C65.0819 8.38102 65.385 8.66786 65.6106 9.03174C65.8356 9.39624 65.9656 9.81272 66 10.2812H60.54H60.5394Z" fill="#1E1E1E"/>
<path d="M79.2206 5.04907C78.4062 5.04907 77.6144 5.29207 76.8437 5.77807C76.0731 6.26407 75.5319 6.87094 75.2206 7.59994V5.25763H71.4281V18.766H75.2206V13.8728C75.2206 12.6585 75.385 11.6564 75.7144 10.8666C76.0431 10.0775 76.4719 9.50448 77 9.14875C77.5281 8.79301 78.1125 8.61515 78.7531 8.61515C79.1687 8.61515 79.5844 8.65836 80 8.74542V5.10168C79.8094 5.06723 79.5494 5.0497 79.2206 5.0497V5.04907Z" fill="#1E1E1E"/>
</g>
<defs>
<clipPath id="clip0_3266_954">
<rect width="80" height="34" fill="white"/>
</clipPath>
</defs>
</svg>
